<?xml version="1.0" standalone="no"?>
<!DOCTYPE svg PUBLIC "-//W3C//DTD SVG 20010904//EN"
 "http://www.w3.org/TR/2001/REC-SVG-20010904/DTD/svg10.dtd">
<svg version="1.0" xmlns="http://www.w3.org/2000/svg"
 width="200.000000pt" height="200.000000pt" viewBox="0 0 200.000000 200.000000"
 preserveAspectRatio="xMidYMid meet">
<metadata>
Created by potrace 1.14, written by Peter Selinger 2001-2017
</metadata>
<g transform="translate(0.000000,200.000000) scale(0.100000,-0.100000)"
fill="#000000" stroke="none">
<path d="M834 1985 c-199 -36 -351 -112 -517 -255 -30 -25 -125 -140 -162
-195 -39 -56 -103 -210 -126 -300 -33 -129 -33 -342 0 -469 74 -287 255 -519
507 -648 172 -89 305 -119 499 -113 146 4 261 32 401 100 167 81 302 199 406
355 42 63 105 213 129 305 19 74 23 116 23 235 0 185 -22 277 -104 445 -69
139 -149 241 -263 332 -112 91 -301 181 -417 199 -19 3 -38 8 -43 11 -19 12
-267 11 -333 -2z"/>
</g>
</svg>
